<?xml version="1.0" standalone="no"?>
<!DOCTYPE svg PUBLIC "-//W3C//DTD SVG 20010904//EN"
 "http://www.w3.org/TR/2001/REC-SVG-20010904/DTD/svg10.dtd">
<svg version="1.0" xmlns="http://www.w3.org/2000/svg"
 width="340.000000pt" height="340.000000pt" viewBox="0 0 340.000000 340.000000"
 preserveAspectRatio="xMidYMid meet">

<g transform="translate(0.000000,340.000000) scale(0.100000,-0.100000)"
fill="#c5d439" stroke="none">
<path d="M436 2761 c-3 -5 -5 -20 -5 -32 1 -13 -2 -89 -7 -169 -11 -181 -12
-766 -1 -1090 4 -135 9 -315 10 -400 l2 -155 55 2 c30 1 91 2 135 1 44 0 157
0 250 2 150 2 420 4 950 9 88 1 204 -3 257 -9 54 -6 244 -12 422 -14 325 -3
336 -2 336 29 0 1 -134 3 -297 3 -268 1 -398 6 -488 18 -16 2 -115 4 -220 3
-104 0 -284 0 -399 0 l-210 0 -123 63 c-105 53 -123 66 -123 86 0 55 -112 117
-172 94 -21 -8 -30 -7 -39 4 -6 8 -22 14 -34 14 -18 0 -24 7 -29 40 -4 24 -14
43 -26 50 -14 8 -19 21 -19 53 0 98 -35 147 -106 147 -14 0 -26 7 -29 18 -3 9
-23 42 -43 72 l-38 55 1 558 c0 306 -1 557 -2 557 -2 0 -5 -4 -8 -9z m51
-1331 c4 -36 7 -127 6 -203 0 -114 -3 -141 -17 -155 -15 -15 -16 -8 -16 93 0
61 -3 178 -5 260 -5 142 -4 148 10 110 9 -21 18 -69 22 -105z m41 37 c13 -28
24 -55 23 -59 0 -4 5 -22 10 -40 32 -106 30 -153 -9 -207 l-32 -44 0 119 c-1
136 -7 217 -20 257 -15 46 4 30 28 -26z m89 -14 c13 -20 18 -45 17 -95 -2 -61
0 -67 20 -70 27 -4 35 -60 12 -84 -35 -34 -16 -43 38 -17 34 16 36 16 54 -7
17 -21 23 -23 45 -13 36 17 92 5 122 -25 40 -40 32 -54 -17 -29 -34 16 -59 20
-122 18 -74 -2 -83 -5 -128 -37 -51 -38 -118 -113 -118 -133 0 -6 -3 -11 -7
-12 -5 0 -23 -2 -40 -5 -32 -4 -33 -3 -33 32 0 30 10 47 59 100 80 88 95 122
88 198 -3 34 -17 94 -30 134 l-23 72 23 0 c14 0 29 -11 40 -27z m291 -373 c34
-16 65 -30 68 -30 12 0 124 -54 124 -60 0 -6 -106 11 -185 30 -22 5 -80 8
-130 6 -78 -3 -99 -7 -161 -37 l-72 -34 40 47 c22 27 43 48 47 48 4 0 16 8 27
18 36 31 55 38 118 40 51 2 71 -2 124 -28z m122 -115 c41 -12 42 -14 15 -15
-47 -2 -355 -3 -405 -1 l-45 2 35 15 c38 17 57 22 109 30 19 2 36 6 38 8 6 6
208 -25 253 -39z"/>
</g>
</svg>
