<?xml version="1.0" standalone="no"?>
<!DOCTYPE svg PUBLIC "-//W3C//DTD SVG 20010904//EN"
 "http://www.w3.org/TR/2001/REC-SVG-20010904/DTD/svg10.dtd">
<svg version="1.0" xmlns="http://www.w3.org/2000/svg"
 width="1248.000000pt" height="832.000000pt" viewBox="0 0 1248.000000 832.000000"
 preserveAspectRatio="xMidYMid meet">

<g transform="translate(0.000000,832.000000) scale(0.100000,-0.100000)"
fill="#f5981f" stroke="none">
<path d="M6405 6201 c-2 -2 -142 -5 -312 -8 -290 -4 -386 -7 -693 -19 -69 -3
-168 -7 -220 -9 -52 -2 -115 -6 -140 -9 -25 -3 -119 -10 -210 -16 -91 -6 -199
-13 -240 -16 -126 -9 -471 -44 -540 -55 -36 -6 -78 -13 -95 -15 -16 -3 -41 -7
-55 -9 -14 -2 -52 -6 -85 -10 -33 -3 -71 -8 -85 -11 -37 -10 -98 -18 -200 -29
-35 -3 -70 -10 -76 -16 -6 -5 -19 -7 -28 -3 -9 3 -23 1 -31 -6 -7 -6 -24 -11
-37 -9 -13 1 -31 -1 -41 -6 -9 -4 -28 -4 -42 -1 -15 4 -25 2 -25 -4 0 -6 -17
-10 -37 -10 -46 1 -188 -15 -234 -26 -19 -4 -38 -8 -44 -9 -5 -1 -18 -5 -28
-9 -10 -5 -21 -6 -24 -3 -3 4 -13 2 -23 -3 -9 -5 -47 -11 -83 -14 -36 -3 -75
-10 -87 -16 -12 -6 -42 -12 -66 -13 -24 -1 -44 -6 -44 -11 0 -4 -9 -6 -20 -3
-11 3 -22 2 -25 -3 -3 -4 -31 -11 -62 -15 -32 -4 -62 -10 -67 -13 -6 -3 -19
-7 -30 -8 -12 -2 -73 -15 -136 -29 -145 -33 -369 -77 -575 -115 -192 -34 -360
-74 -406 -96 -23 -10 -26 -13 -9 -9 14 3 50 10 80 15 30 5 65 12 78 16 13 4
22 2 22 -4 0 -6 -19 -16 -42 -22 -24 -7 -59 -16 -79 -22 -20 -6 -41 -8 -46 -5
-5 3 -15 2 -23 -4 -11 -6 -5 -9 20 -10 l35 -1 -35 -9 c-19 -5 -62 -13 -95 -19
-125 -21 -218 -62 -201 -89 6 -10 56 -2 73 11 8 6 15 2 24 -14 17 -33 31 -39
49 -23 10 9 20 11 30 5 12 -8 10 -14 -15 -34 -25 -20 -28 -26 -16 -40 15 -17
61 -22 61 -6 0 16 45 40 88 48 33 5 39 10 32 21 -7 12 -15 13 -42 5 -19 -6
-42 -8 -53 -4 -17 6 -17 8 6 23 13 9 41 17 62 17 31 0 40 -4 44 -21 5 -19 10
-20 62 -14 52 6 54 5 36 -9 -20 -15 -19 -15 4 -9 44 11 18 -21 -40 -49 -53
-25 -98 -37 -164 -43 -16 -1 -41 -8 -55 -14 -23 -11 -26 -19 -27 -67 -2 -65
12 -76 55 -46 33 24 202 44 202 24 0 -6 7 -9 15 -6 8 4 15 11 15 16 0 6 -7 8
-15 4 -8 -3 -15 -1 -15 4 0 12 9 16 55 23 34 6 37 5 18 -5 -32 -15 -29 -32 4
-24 17 5 29 3 34 -6 7 -10 9 -10 9 -1 0 10 6 10 25 1 25 -11 25 -31 0 -21 -9
3 -15 -1 -15 -10 0 -9 10 -17 23 -19 21 -3 -78 -43 -175 -70 -21 -6 -38 -14
-38 -19 0 -4 -33 -18 -72 -30 -88 -26 -94 -30 -103 -76 -9 -47 3 -57 73 -59
31 0 65 -4 75 -9 9 -4 33 -4 53 0 33 6 35 5 29 -14 -4 -14 -2 -21 6 -21 7 0
-2 -11 -20 -24 l-34 -25 27 -7 c14 -3 23 -10 20 -15 -9 -14 6 -10 22 6 10 9
34 15 63 15 26 0 53 6 59 12 10 10 17 10 33 0 17 -11 23 -11 32 1 12 15 73 28
95 20 15 -6 16 -33 1 -33 -8 0 -9 -4 0 -13 15 -19 4 -27 -35 -27 -18 0 -36 -5
-39 -11 -4 -6 -13 -8 -21 -5 -9 4 -14 -2 -14 -15 0 -18 4 -20 28 -14 15 3 40
13 56 21 33 16 46 18 46 5 0 -9 -125 -56 -180 -67 -48 -9 -88 -56 -57 -67 9
-4 9 -7 0 -17 -10 -11 -9 -16 4 -25 20 -15 9 -35 -20 -35 -29 0 -43 -10 -49
-38 -7 -27 22 -37 83 -29 21 3 39 1 39 -4 0 -5 -3 -9 -7 -10 -22 -2 -52 -9
-74 -18 -24 -10 -24 -10 6 -11 46 -1 54 -11 51 -59 l-3 -43 41 7 c67 11 79 11
83 -2 2 -6 -6 -14 -19 -18 -36 -11 -58 -36 -58 -65 0 -35 35 -44 105 -26 61
16 90 9 51 -11 -15 -8 -59 -16 -99 -19 -101 -7 -107 -7 -107 -15 0 -4 -19 -5
-42 -2 -38 6 -41 5 -35 -15 3 -14 -1 -26 -11 -32 -33 -21 71 -4 173 28 126 40
205 42 205 6 0 -7 10 -20 22 -28 22 -16 21 -16 -20 -16 -40 0 -57 -15 -29 -26
16 -6 20 -83 6 -100 -7 -9 -7 -19 1 -33 6 -12 7 -21 3 -21 -4 0 0 -5 10 -11 9
-5 17 -16 17 -24 0 -8 9 -20 20 -28 11 -8 17 -16 14 -19 -3 -3 11 -9 31 -12
19 -4 35 -11 35 -15 0 -13 30 -22 43 -14 7 4 22 6 34 4 17 -2 21 2 17 12 -3
10 2 18 16 22 29 9 38 -2 15 -19 -17 -12 -14 -14 36 -21 l54 -8 -30 -13 c-16
-7 -50 -14 -75 -14 -65 -1 -102 -20 -106 -53 -3 -26 18 -39 30 -18 8 12 55 20
58 10 2 -5 57 -2 123 6 66 8 127 14 135 15 30 0 -13 -19 -67 -30 -29 -6 -53
-15 -53 -19 0 -5 -23 -12 -52 -15 -28 -4 -59 -11 -68 -16 -10 -5 -48 -14 -86
-20 -37 -6 -74 -16 -81 -21 -7 -6 -26 -8 -43 -4 -17 4 -36 3 -43 -2 -7 -5 -43
-15 -82 -23 -38 -7 -77 -16 -86 -21 -30 -15 -142 -29 -154 -19 -9 7 -16 6 -24
-4 -17 -20 -5 -25 78 -32 47 -5 71 -3 71 4 0 10 40 21 160 42 61 11 113 22
238 50 81 19 71 7 -21 -23 -90 -29 -172 -47 -217 -47 -35 0 -112 -29 -105 -40
8 -13 -109 -78 -155 -85 -25 -3 -53 -9 -62 -11 -12 -4 -18 0 -18 11 0 15 -7
16 -57 10 -76 -9 -151 -65 -88 -65 30 0 33 -16 5 -25 -11 -3 -20 -10 -20 -15
0 -5 14 -4 31 2 37 13 52 2 15 -11 -32 -13 -32 -19 -1 -56 26 -30 30 -69 8
-71 -7 -1 -14 -2 -15 -4 -2 -1 -11 -3 -21 -5 -30 -6 -33 -15 -8 -22 l24 -6
-22 -16 c-28 -21 -19 -51 15 -51 28 0 56 -25 79 -70 13 -26 14 -34 4 -47 -11
-12 -10 -14 7 -11 13 2 20 -3 22 -18 2 -11 17 -29 35 -39 19 -12 26 -20 17
-21 -79 -10 -160 -27 -160 -34 0 -15 20 -22 66 -23 27 0 49 5 54 12 5 9 10 10
14 3 4 -7 17 -7 36 -2 35 10 42 -6 8 -20 -20 -8 -18 -9 15 -9 38 -1 45 -9 25
-29 -18 -18 -4 -24 26 -11 18 9 26 19 24 33 -2 15 3 22 17 24 16 2 20 -4 22
-28 1 -20 -2 -30 -11 -30 -8 0 -17 -11 -20 -24 -7 -28 -16 -32 -110 -45 -38
-6 -74 -15 -79 -20 -8 -8 -7 -11 1 -11 20 0 13 -14 -15 -33 l-28 -17 55 6 c30
4 60 10 65 14 20 14 44 19 50 10 3 -5 -14 -18 -38 -29 -63 -29 -71 -41 -56
-90 18 -60 36 -73 83 -59 29 9 42 9 58 -1 17 -10 22 -9 34 6 13 17 13 17 14
-1 0 -11 7 -27 15 -36 13 -14 23 -16 58 -8 55 11 177 20 177 12 0 -11 -52 -69
-69 -76 -10 -4 -3 -7 19 -7 l34 -1 -34 -30 c-19 -16 -29 -29 -22 -30 28 -1 9
-19 -23 -22 -36 -3 -50 -24 -15 -22 11 0 20 -3 20 -8 0 -4 -8 -8 -17 -9 -12
-1 -10 -3 6 -8 41 -11 37 -31 -6 -31 -21 0 -67 -5 -102 -11 -51 -8 -66 -7 -72
3 -12 19 -44 -15 -35 -37 5 -14 19 -16 82 -13 111 4 107 -25 -6 -48 -19 -3
-48 -16 -64 -27 -16 -11 -38 -21 -49 -22 -12 -1 -23 -7 -25 -13 -5 -15 13 -15
39 -2 23 13 75 21 144 24 28 1 67 10 89 19 21 9 43 17 48 17 6 0 24 6 41 14
42 19 288 49 301 36 5 -5 0 -11 -15 -14 -167 -33 -242 -46 -276 -46 -46 0 -73
-8 -73 -21 0 -12 74 -11 124 1 22 5 44 6 49 3 17 -10 111 -12 123 -2 15 13 79
8 79 -6 0 -5 -22 -15 -50 -22 -48 -12 -46 -12 40 -7 50 3 110 10 135 16 58 12
97 16 195 21 44 2 91 9 104 17 23 12 40 15 141 24 48 4 132 27 148 39 10 8 16
7 22 -3 7 -12 18 -12 68 -2 72 15 164 16 142 2 -8 -5 -67 -21 -130 -35 -63
-15 -151 -35 -195 -45 -137 -32 -306 -60 -400 -66 -78 -4 -136 -14 -182 -29
-7 -2 -10 -11 -7 -19 5 -12 21 -14 92 -9 52 3 93 11 103 19 18 16 39 18 39 5
0 -5 -6 -12 -12 -14 -7 -3 -4 -6 7 -6 11 -1 34 8 50 19 34 23 60 27 31 5 -11
-8 -18 -17 -15 -19 4 -5 163 30 189 41 8 3 21 5 28 4 6 -1 12 6 12 15 0 14 7
15 46 9 30 -4 50 -2 60 6 9 7 29 9 57 5 26 -4 37 -3 28 3 -9 6 -2 10 25 13 47
6 49 5 35 -20 -10 -18 -47 -31 -130 -47 -32 -6 -40 -15 -13 -15 23 0 29 -14
12 -25 -6 -3 -10 -13 -10 -22 0 -13 8 -15 45 -10 27 4 45 3 45 -3 0 -6 5 -10
11 -10 5 0 7 5 3 11 -5 8 1 10 19 5 32 -8 41 5 22 30 -8 10 -15 23 -15 27 0
11 33 4 45 -10 11 -12 36 -16 98 -14 30 1 37 5 37 21 0 13 9 21 28 25 23 5 61
21 106 44 5 2 7 -3 3 -12 -7 -18 8 -24 18 -7 10 16 23 12 30 -10 3 -10 20 -26
38 -35 29 -15 33 -14 59 5 29 21 82 27 93 10 4 -6 16 -5 33 3 28 14 196 54
342 82 47 9 128 25 180 36 52 11 125 21 162 23 45 2 72 8 83 20 9 9 21 14 26
10 6 -3 17 0 25 7 8 6 35 13 60 15 25 2 62 8 82 13 20 5 62 10 92 11 87 2 115
5 120 11 9 11 403 19 416 8 7 -6 21 -4 40 6 34 17 70 19 79 4 5 -6 11 -4 19 7
10 13 17 14 31 7 22 -13 97 -5 107 11 5 8 73 10 218 8 168 -3 210 -1 210 10 0
8 3 9 8 3 4 -6 57 -10 123 -10 96 0 116 2 111 14 -4 11 1 13 29 6 54 -12 213
-14 221 -2 4 7 12 7 22 -2 12 -10 33 -12 75 -7 38 4 62 3 66 -4 9 -14 42 -13
48 3 3 9 7 9 19 -1 10 -8 19 -9 22 -3 6 9 24 8 89 -5 16 -3 27 -1 27 5 0 16
29 13 46 -4 18 -17 50 -20 59 -5 4 7 12 7 25 0 18 -9 33 -9 138 6 52 8 174 -4
167 -16 -3 -5 -1 -11 4 -14 5 -4 12 -3 15 2 3 4 35 5 73 1 37 -5 82 -6 99 -3
18 3 35 1 38 -5 4 -5 13 -8 21 -5 7 3 24 0 37 -7 12 -7 48 -13 78 -14 60 -2
180 -14 220 -21 14 -3 52 -9 85 -14 33 -5 61 -13 62 -17 2 -4 31 -7 66 -6 34
1 82 -2 107 -7 64 -13 127 -19 270 -25 179 -8 338 -23 470 -46 168 -28 170
-28 219 -49 50 -21 212 -39 401 -44 203 -6 314 -12 370 -21 30 -4 51 -4 47 1
-4 4 -20 9 -35 11 -52 6 -140 21 -160 27 -11 4 -30 9 -42 11 -12 2 -27 11 -34
19 -12 15 -115 40 -236 57 -180 24 -201 28 -215 39 -19 16 -20 70 -1 70 7 0
19 -7 27 -16 7 -8 21 -13 30 -11 10 3 20 0 21 -5 2 -6 61 -11 138 -13 74 -2
150 -3 168 -4 23 -1 32 -6 33 -18 0 -11 3 -13 6 -5 7 18 79 16 87 -3 4 -11 21
-14 71 -13 36 1 65 5 65 8 0 4 -38 19 -85 35 -69 23 -87 26 -100 15 -10 -9
-31 -11 -68 -6 -28 4 -58 7 -64 8 -7 1 -13 7 -13 15 0 7 -10 13 -22 13 -34 0
-105 24 -107 35 -1 6 27 13 61 16 35 4 70 8 78 10 8 1 47 1 85 0 52 -2 64 -5
45 -11 -14 -4 -20 -9 -15 -10 6 -1 1 -6 -10 -11 -14 -6 -4 -7 31 -3 33 3 54 2
59 -5 3 -6 23 -11 43 -11 21 0 61 -6 90 -14 29 -7 55 -9 58 -5 3 5 -1 11 -8
13 -7 2 -35 11 -63 20 -49 15 -49 16 -10 11 22 -3 76 -12 120 -20 44 -8 98
-14 120 -14 l40 1 -35 10 c-150 44 -155 46 -152 62 2 10 -7 17 -25 21 -15 3
-57 13 -93 22 -36 8 -83 17 -105 20 -22 2 -53 8 -69 13 -15 5 -32 7 -37 4 -5
-3 -24 -2 -42 2 -31 7 -31 8 -7 14 18 4 24 12 22 27 -2 17 3 21 35 25 61 7 98
-4 98 -31 1 -28 16 -36 85 -45 67 -9 83 -12 183 -29 42 -8 77 -10 77 -6 0 5
-5 9 -12 9 -6 0 -9 3 -5 6 3 3 20 -1 36 -9 17 -9 31 -11 31 -6 0 6 12 1 26
-10 18 -14 41 -21 68 -20 39 0 40 1 16 12 -34 15 -34 15 -21 30 23 29 -35 50
-184 67 -49 5 -101 12 -115 15 -14 3 -79 12 -145 20 -66 9 -140 22 -165 29
-25 8 -67 18 -95 22 -27 4 -90 20 -139 35 -51 17 -114 29 -145 30 -53 1 -54 1
-21 10 19 5 52 14 72 21 32 9 55 7 150 -15 126 -29 276 -52 284 -44 3 3 -16 8
-43 12 -26 4 -131 26 -233 51 -102 24 -193 44 -203 44 -9 0 -17 5 -17 10 0 6
16 10 36 10 31 0 35 3 29 18 -17 40 -17 52 -2 52 8 0 25 -16 37 -35 28 -45 52
-47 43 -3 -6 31 -6 31 28 24 32 -6 33 -6 16 11 -12 13 -31 17 -66 15 -28 -1
-53 3 -56 8 -3 6 -3 10 2 11 102 8 193 5 203 -6 6 -8 18 -11 25 -9 8 3 24 -1
36 -10 13 -9 32 -13 45 -10 19 5 24 1 30 -20 7 -29 43 -37 40 -10 0 9 5 19 12
22 9 3 13 -2 11 -14 -2 -11 0 -25 5 -32 7 -11 -2 -13 -43 -10 -44 4 -51 2 -51
-14 0 -21 30 -24 62 -7 16 9 23 8 29 -2 7 -11 9 -10 9 3 0 21 19 26 95 26 68
0 95 -5 95 -19 0 -5 -31 -7 -75 -3 -42 4 -75 2 -75 -3 0 -5 12 -9 28 -10 15
-1 55 -5 89 -8 55 -6 62 -5 57 9 -4 11 -1 16 11 16 9 0 13 -4 10 -10 -3 -5 -1
-10 4 -10 6 0 11 7 11 16 0 13 8 15 53 9 28 -4 79 -13 112 -20 33 -7 89 -16
125 -19 l65 -5 -85 19 c-47 10 -97 19 -112 20 -32 0 -46 17 -23 27 10 3 20 1
24 -5 4 -6 34 -14 66 -18 55 -5 96 -13 168 -30 19 -5 33 -1 47 11 14 12 27 15
47 11 15 -4 60 -9 98 -11 39 -2 61 -1 50 1 -11 3 -31 7 -45 10 -23 5 -24 7 -7
19 16 11 15 13 -13 25 -16 7 -30 17 -30 22 0 15 44 27 58 16 7 -6 44 -9 87 -6
56 4 78 2 86 -9 15 -17 39 1 39 28 0 14 7 19 25 19 14 0 25 -4 25 -10 0 -5 -3
-10 -7 -10 -19 -1 -33 -18 -27 -33 9 -24 47 -21 63 5 12 20 11 24 -19 48 -19
15 -41 25 -51 23 -24 -7 -59 14 -53 31 3 7 20 18 37 24 28 9 29 10 8 11 -20 1
-21 3 -11 16 7 8 23 15 36 15 17 0 24 6 24 20 0 14 7 20 21 20 13 0 18 -4 13
-12 -5 -8 4 -9 33 -5 30 5 42 3 46 -6 7 -20 72 -48 92 -41 9 4 15 14 13 22 -5
26 -200 82 -286 82 -17 0 -34 5 -38 12 -5 8 4 9 32 5 113 -17 169 -19 222 -7
69 16 82 25 48 34 -43 11 -31 28 17 25 32 -3 47 1 65 17 l23 22 -27 19 c-17
12 -23 23 -16 27 6 3 23 -5 37 -18 20 -19 31 -23 43 -16 10 6 29 14 45 20 61
22 38 79 -40 100 -26 7 -53 19 -58 26 -6 7 -37 17 -68 23 -31 6 -65 15 -75 20
-10 5 -46 13 -80 17 -96 10 -73 23 30 17 82 -6 91 -5 85 10 -5 13 -1 17 18 17
18 0 23 -4 19 -15 -6 -16 -5 -16 71 -21 22 -1 41 -6 42 -11 2 -4 23 -7 47 -5
26 2 55 -2 73 -12 24 -12 34 -13 47 -3 15 11 14 15 -13 41 -17 16 -28 33 -25
38 3 4 24 9 47 9 23 1 35 3 26 6 -17 4 -31 46 -20 60 4 4 5 7 3 6 -2 -1 -17 3
-34 9 -21 8 -28 15 -25 29 6 22 -11 30 -87 38 -33 3 -61 11 -63 18 -4 12 41
11 107 -2 l25 -5 -25 16 -25 15 37 -5 c47 -6 95 -36 76 -48 -19 -12 3 -24 76
-38 34 -6 76 -19 93 -27 41 -19 61 -12 61 21 0 31 -56 57 -70 32 -11 -19 -93
-19 -109 0 -13 16 -9 17 39 14 30 -1 33 1 27 19 -5 16 -1 23 19 31 14 5 26 13
26 18 0 11 -147 45 -165 39 -7 -3 -18 0 -24 7 -6 7 -38 21 -71 31 -33 10 -60
22 -60 28 0 5 -18 7 -40 5 -22 -2 -40 0 -40 3 0 4 -38 12 -85 19 -47 7 -92 18
-100 26 -7 8 -25 14 -38 14 -32 0 -57 9 -57 21 0 21 167 1 305 -36 62 -16 111
-10 118 16 5 19 -24 36 -43 24 -12 -7 -70 22 -70 36 0 5 -13 3 -28 -6 -27 -16
-31 -16 -90 8 -34 14 -97 31 -139 37 -43 6 -93 13 -110 16 -20 3 -33 11 -33
19 0 15 28 18 165 16 72 -1 210 -18 247 -31 16 -5 30 -5 33 0 3 5 17 5 33 0
15 -5 38 -11 52 -13 14 -2 33 -7 43 -10 36 -14 44 -15 57 -7 7 4 31 2 53 -6
49 -17 46 -18 40 6 -5 18 -1 19 42 17 64 -4 66 9 3 22 -70 14 -179 31 -198 32
-8 0 -34 5 -57 12 -32 9 -40 14 -31 24 11 14 1 20 -56 33 -28 7 -26 8 19 10
50 2 50 2 -29 17 -82 16 -90 35 -8 22 26 -4 67 -8 92 -8 40 0 43 1 28 13 -10
7 -18 18 -18 25 0 16 -20 14 -26 -4 -8 -19 -64 -20 -64 -1 0 18 -30 30 -44 16
-15 -15 -27 -13 -66 11 -34 21 -34 22 -12 30 12 5 29 6 37 3 8 -4 15 -1 15 5
0 13 -45 25 -60 16 -6 -4 -15 -18 -20 -31 l-9 -24 -35 21 c-51 30 -61 45 -39
57 10 5 24 7 31 5 6 -3 12 0 12 5 0 11 -33 22 -67 22 -12 0 -57 11 -99 25 -42
14 -82 24 -88 23 -6 -1 -32 3 -58 10 -27 7 -69 18 -95 24 -62 16 -57 15 -103
17 -27 1 -40 6 -40 15 0 18 51 36 82 29 18 -4 20 -2 8 6 -21 15 -5 25 27 16
25 -6 26 -8 9 -14 -25 -9 -12 -18 39 -25 22 -3 34 -3 28 0 -7 3 -13 10 -13 15
0 14 34 11 56 -6 25 -19 54 -19 54 0 0 19 -22 29 -95 44 -33 7 -70 17 -82 23
-17 8 -26 8 -38 -2 -13 -11 -19 -10 -35 5 -19 17 -50 15 -50 -5 0 -5 -9 -10
-20 -10 -11 0 -20 5 -20 11 0 6 -9 1 -20 -12 -17 -21 -17 -25 -4 -36 12 -8 13
-16 6 -29 -7 -13 -26 -19 -73 -21 -41 -2 -68 -9 -75 -18 -15 -21 -78 -20 -70
0 4 11 -2 15 -22 16 -15 1 -31 1 -37 -1 -5 -1 -2 7 8 18 21 24 12 34 -18 20
-19 -8 -29 -6 -53 11 -17 11 -36 21 -44 21 -8 0 -25 11 -38 25 l-23 24 27 11
c15 5 25 14 22 19 -7 10 -25 9 -44 -3 -14 -9 -72 2 -72 13 0 18 43 61 61 61
18 0 134 -29 272 -69 61 -18 69 -18 74 -4 10 26 -12 48 -48 49 -19 0 -44 6
-56 12 -14 8 -24 9 -28 2 -8 -13 -42 -13 -47 0 -2 6 -22 13 -46 15 -23 2 -51
9 -61 15 -11 5 -29 10 -40 10 -25 0 -37 18 -22 33 18 18 13 28 -11 24 -13 -2
-17 -2 -10 0 6 3 12 11 12 19 0 11 7 11 38 -3 20 -10 43 -22 50 -27 19 -14 74
-13 79 1 3 8 14 11 29 7 15 -4 24 -2 24 6 0 15 76 7 248 -26 18 -4 22 -9 17
-24 -7 -23 15 -36 42 -25 16 6 15 8 -7 26 l-25 19 69 -5 c38 -2 74 -9 80 -15
5 -5 18 -10 28 -10 10 0 18 -5 18 -10 0 -6 -11 -8 -25 -4 -14 3 -25 2 -25 -4
0 -9 45 -22 78 -22 13 0 12 3 -4 15 -25 19 -11 19 88 -4 46 -11 118 -23 161
-27 62 -5 77 -9 75 -22 -2 -11 19 -23 72 -43 90 -34 110 -35 136 -9 47 47 48
46 -44 69 -48 12 -92 23 -98 25 -6 1 -19 9 -28 19 -16 16 -13 16 56 12 88 -6
128 -14 128 -25 0 -5 -10 -10 -22 -12 -19 -3 -16 -6 16 -16 52 -15 156 -5 156
16 0 11 3 12 13 3 13 -10 27 -6 27 9 0 4 -19 13 -42 19 -39 12 -41 14 -24 27
27 19 13 41 -35 54 -30 8 -38 14 -29 20 10 6 8 10 -11 14 -13 3 -49 10 -79 16
-132 28 -170 50 -86 50 26 0 48 -6 56 -15 18 -21 33 -19 65 11 22 20 33 24 57
19 30 -7 98 19 98 37 0 12 38 10 45 -2 3 -6 -4 -10 -17 -10 -16 -1 -7 -7 26
-20 46 -18 74 -19 51 -2 -6 4 -11 22 -12 40 -2 29 0 32 27 32 17 0 30 5 30 11
0 8 4 8 14 0 11 -9 14 -5 18 23 4 34 -21 74 -37 58 -7 -8 -26 19 -20 29 3 3
46 4 98 1 l93 -5 0 37 c0 42 -15 50 -73 42 -28 -4 -32 -3 -13 3 25 8 25 8 -10
19 -26 7 -29 10 -12 11 13 1 22 7 22 17 0 15 31 15 123 -2 31 -6 36 9 12 36
-14 16 -13 20 13 48 26 28 39 61 57 145 5 26 4 27 -34 27 -37 0 -71 19 -71 41
0 5 9 9 20 9 11 0 20 -4 20 -10 0 -5 10 -9 23 -9 16 1 18 2 5 6 -10 2 -18 13
-18 24 0 15 7 19 33 20 31 0 32 0 7 10 -14 6 -45 8 -70 6 -45 -5 -106 2 -235
28 -38 8 -85 17 -103 20 -20 4 -30 11 -25 16 9 9 183 -16 218 -31 11 -5 36
-10 55 -12 19 -1 41 -6 48 -11 7 -6 12 -6 12 1 0 5 -10 17 -22 25 -22 15 -20
16 42 17 54 1 61 3 40 11 -14 6 -43 9 -65 8 -22 -1 -48 1 -59 6 -11 5 -25 4
-34 -1 -20 -13 -153 1 -163 17 -4 7 -12 8 -20 3 -18 -10 -71 -7 -144 11 -33 8
-91 16 -130 19 -38 2 -92 9 -120 15 -27 5 -113 22 -190 36 -77 15 -154 30
-171 34 -17 5 -38 4 -47 0 -9 -6 -18 -5 -21 0 -4 5 -31 13 -62 17 -30 3 -62
13 -70 22 -11 11 -18 12 -23 4 -5 -9 -17 -9 -42 -2 -74 22 -495 100 -558 103
-19 1 -36 8 -39 16 -4 11 5 12 44 6 94 -15 238 -5 218 15 -8 8 -82 14 -287 25
-62 3 -88 -11 -38 -21 18 -4 31 -13 31 -21 0 -11 -6 -14 -22 -9 -13 3 -56 14
-95 23 -79 18 -95 33 -35 34 20 0 30 3 22 6 -16 6 -50 38 -50 48 0 9 149 5
155 -5 3 -5 34 -9 68 -9 34 0 116 -2 182 -5 126 -5 112 2 -45 24 -81 12 -107
18 -74 19 30 1 244 -28 255 -35 5 -3 7 -9 4 -14 -15 -25 202 -70 236 -49 31
18 -112 67 -281 96 -169 28 -276 43 -340 49 -87 7 -155 24 -138 35 10 7 10 9
1 9 -19 0 -15 18 5 22 17 3 -3 8 -193 49 -296 62 -390 81 -488 99 -59 11 -151
29 -205 40 -54 11 -170 29 -258 40 -87 11 -208 27 -269 35 -225 30 -437 38
-953 39 -288 1 -525 -1 -527 -3z m2878 -378 c-7 -2 -21 -2 -30 0 -10 3 -4 5
12 5 17 0 24 -2 18 -5z m170 -20 c-7 -2 -21 -2 -30 0 -10 3 -4 5 12 5 17 0 24
-2 18 -5z m74 -9 c-3 -3 -12 -4 -19 -1 -8 3 -5 6 6 6 11 1 17 -2 13 -5z m376
-61 c-7 -2 -21 -2 -30 0 -10 3 -4 5 12 5 17 0 24 -2 18 -5z m454 -279 c-3 -3
-12 -4 -19 -1 -8 3 -5 6 6 6 11 1 17 -2 13 -5z m76 -11 c-7 -2 -19 -2 -25 0
-7 3 -2 5 12 5 14 0 19 -2 13 -5z m131 -19 c81 -21 104 -35 51 -32 -22 2 -42
6 -45 10 -3 4 -21 8 -40 10 -19 1 -44 8 -55 15 -19 13 -19 13 4 13 13 0 51 -7
85 -16z m-164 -14 c0 -5 -7 -7 -15 -4 -8 4 -15 8 -15 10 0 2 7 4 15 4 8 0 15
-4 15 -10z m35 0 c3 -5 -1 -10 -10 -10 -9 0 -13 5 -10 10 3 6 8 10 10 10 2 0
7 -4 10 -10z m528 -47 c-7 -2 -19 -2 -25 0 -7 3 -2 5 12 5 14 0 19 -2 13 -5z
m392 -113 c3 -5 -1 -10 -9 -10 -9 0 -16 5 -16 10 0 6 4 10 9 10 6 0 13 -4 16
-10z m-9651 -405 c-6 -16 -54 -21 -54 -7 0 15 12 22 36 22 17 0 22 -4 18 -15z
m8437 -294 c57 -11 118 -24 134 -30 17 -5 46 -12 66 -15 21 -4 43 -14 50 -23
15 -18 8 -17 -134 18 -43 10 -117 24 -165 30 -48 6 -121 17 -162 24 l-75 12
91 2 c52 0 134 -7 195 -18z m419 -59 c56 -19 55 -19 41 -36 -10 -12 -8 -17 8
-25 11 -6 26 -11 35 -11 8 0 18 -4 21 -10 3 -5 0 -8 -7 -6 -7 3 -56 14 -108
26 -144 32 -136 28 -109 56 25 27 53 28 119 6z m-8630 -7 c7 -8 19 -15 26 -15
21 0 17 -48 -4 -59 -10 -5 -34 -9 -53 -9 -19 1 -28 3 -21 5 6 3 10 8 7 13 -3
4 2 13 10 20 17 14 20 40 4 40 -5 0 -7 5 -4 10 9 14 21 12 35 -5z m7830 11 c0
-2 -7 -7 -16 -10 -8 -3 -12 -2 -9 4 6 10 25 14 25 6z m-8070 -112 c0 -12 -54
-14 -66 -2 -3 4 -4 14 -1 22 5 12 11 13 36 3 17 -6 31 -17 31 -23z m-138 -16
c-9 -9 -15 -9 -24 0 -9 9 -7 12 12 12 19 0 21 -3 12 -12z m168 -63 c0 -20 -20
-28 -57 -23 l-28 4 35 17 c44 20 50 21 50 2z m8456 -81 c-15 -14 -31 -22 -35
-19 -7 8 36 45 53 45 6 0 -2 -12 -18 -26z m20 -143 c-9 -10 -16 -23 -16 -29 0
-14 -19 -15 -39 -3 -23 15 3 48 39 49 30 1 31 0 16 -17z m-8333 2 c-7 -2 -19
-2 -25 0 -7 3 -2 5 12 5 14 0 19 -2 13 -5z m8706 -44 c5 8 14 10 22 5 8 -5 24
-7 37 -5 12 1 22 -3 22 -9 0 -6 -4 -9 -8 -6 -4 2 -22 -2 -40 -11 -28 -14 -33
-14 -47 1 -9 9 -22 16 -28 16 -7 0 -6 4 3 10 9 6 17 5 22 -3 6 -9 10 -9 17 2z
m-73 -36 c-6 -6 -36 9 -36 18 0 5 9 4 20 -3 10 -7 18 -14 16 -15z m164 3 c0
-9 -30 -14 -35 -6 -4 6 3 10 14 10 12 0 21 -2 21 -4z m-8787 -193 c-7 -2 -19
-2 -25 0 -7 3 -2 5 12 5 14 0 19 -2 13 -5z m8586 -29 c2 -2 2 -6 -1 -9 -8 -8
-68 6 -68 16 0 8 59 1 69 -7z m76 -454 c3 -5 1 -10 -4 -10 -6 0 -11 5 -11 10
0 6 2 10 4 10 3 0 8 -4 11 -10z m533 0 c6 0 12 -7 12 -15 0 -19 -14 -19 -32
-2 -7 8 -20 17 -28 21 -8 3 -4 4 10 1 14 -2 31 -5 38 -5z m-171 -16 c20 -5 21
-8 7 -21 -12 -12 -18 -13 -29 -3 -11 9 -15 9 -15 1 0 -6 -9 -11 -19 -11 -14 0
-18 5 -14 20 5 21 28 25 70 14z m203 -34 c0 -5 -2 -10 -4 -10 -3 0 -8 5 -11
10 -3 6 -1 10 4 10 6 0 11 -4 11 -10z m-196 -39 c16 -6 17 -9 5 -13 -8 -3 -26
0 -40 8 -21 12 -22 13 -4 13 11 0 29 -4 39 -8z m-314 -31 c0 -5 -4 -10 -10
-10 -5 0 -10 5 -10 10 0 6 5 10 10 10 6 0 10 -4 10 -10z m245 -179 c3 -5 1
-12 -5 -16 -14 -9 -120 5 -120 16 0 12 117 12 125 0z m-515 -136 c-12 -15 -30
-12 -30 6 0 5 10 9 21 9 18 0 19 -2 9 -15z m-1301 -274 c-15 -5 -22 6 -14 19
6 9 10 9 16 -1 5 -8 4 -15 -2 -18z m1241 9 c0 -5 -4 -10 -10 -10 -5 0 -10 5
-10 10 0 6 5 10 10 10 6 0 10 -4 10 -10z m-674 -25 c18 -14 17 -15 -16 -11
-19 2 -37 5 -40 5 -6 2 22 21 31 21 3 0 14 -7 25 -15z m219 -5 c13 -5 14 -9 5
-9 -8 0 -24 4 -35 9 -13 5 -14 9 -5 9 8 0 24 -4 35 -9z m443 -21 c-6 -4 -24
-2 -40 3 -20 7 -26 13 -18 18 7 4 25 3 41 -3 17 -7 24 -14 17 -18z m-1293 1
c3 -5 16 -10 28 -10 l22 -1 -24 -19 c-25 -22 -56 -26 -66 -10 -3 6 2 10 11 10
14 0 15 3 6 12 -7 7 -12 16 -12 20 0 11 28 10 35 -2z m-165 -9 c0 -17 -30 -33
-52 -28 -12 4 -28 1 -34 -4 -14 -12 -121 -2 -129 11 -9 15 16 22 31 9 11 -9
18 -9 22 -2 11 18 162 31 162 14z m332 -165 c-5 -6 -9 -25 -9 -42 0 -29 4 -33
39 -38 41 -7 50 -21 18 -31 -30 -10 -160 6 -175 21 -7 8 -24 14 -37 14 -13 0
-32 7 -42 15 -18 13 -17 14 15 10 19 -2 56 -9 84 -14 53 -10 65 -7 47 11 -15
15 33 79 54 71 9 -3 11 -10 6 -17z m-611 -3 c12 -15 12 -16 -4 -10 -10 4 -23
7 -28 7 -6 0 -7 5 -4 10 9 15 21 12 36 -7z m237 -9 c53 -6 62 -17 29 -38 -12
-8 -26 -7 -49 3 -18 8 -49 15 -68 16 -64 4 -70 5 -70 14 0 20 28 21 158 5z
m137 -45 c5 -5 1 -9 -12 -9 -11 0 -27 7 -34 16 -12 15 -11 16 11 9 14 -4 29
-11 35 -16z m455 -9 c0 -21 -15 -27 -25 -10 -7 12 2 30 16 30 5 0 9 -9 9 -20z
m-52 -5 c-2 -5 -10 -9 -18 -8 -9 1 -6 -6 9 -18 l23 -19 -41 0 c-44 0 -50 9
-25 38 17 20 56 25 52 7z m-7383 -9 c-38 -17 -105 -27 -105 -17 0 5 24 13 53
18 72 14 87 14 52 -1z m7750 -5 c16 -7 14 -9 -16 -12 -41 -5 -59 -2 -59 12 0
11 47 11 75 0z m88 -18 c-7 -2 -19 -2 -25 0 -7 3 -2 5 12 5 14 0 19 -2 13 -5z
m-7918 -33 c8 -13 -33 -29 -57 -22 -14 3 -16 7 -7 18 13 16 55 19 64 4z m4342
-26 c-3 -3 -12 -4 -19 -1 -8 3 -5 6 6 6 11 1 17 -2 13 -5z m-4352 -34 c-11 -5
-31 -9 -45 -9 -20 -1 -22 1 -10 9 8 5 29 9 45 9 26 0 27 -2 10 -9z m7110 -7
c28 -4 53 -6 58 -5 11 3 9 -16 -3 -23 -5 -3 -19 -1 -30 5 -16 9 -25 8 -36 0
-16 -14 -129 -6 -154 11 -13 8 -13 10 0 19 14 10 46 8 165 -7z m-347 -25 c-8
-6 -1 -7 21 -3 20 4 31 3 28 -2 -3 -5 8 -9 26 -9 132 0 307 -30 335 -57 13
-14 13 -18 1 -33 -12 -14 -27 -16 -104 -11 -49 4 -121 13 -160 21 -38 8 -86
14 -105 14 -56 0 -104 12 -116 27 -6 8 -16 15 -23 15 -6 0 -11 5 -11 11 0 6 7
9 15 5 23 -8 75 13 69 29 -4 10 1 12 16 8 17 -4 19 -8 8 -15z m963 -6 c-7 -2
-18 1 -23 6 -8 8 -4 9 13 5 13 -4 18 -8 10 -11z m-1214 -8 c-3 -3 -12 -4 -19
-1 -8 3 -5 6 6 6 11 1 17 -2 13 -5z m650 -10 c-3 -3 -12 -4 -19 -1 -8 3 -5 6
6 6 11 1 17 -2 13 -5z m-112 -109 c53 -13 55 -14 15 -10 -109 12 -155 18 -159
21 -10 10 90 2 144 -11z m135 -25 c20 -6 21 -8 5 -8 -11 0 -31 4 -45 8 -20 6
-21 8 -5 8 11 0 31 -4 45 -8z m-5990 -60 c0 -5 8 -10 17 -10 40 0 0 -12 -51
-15 -59 -3 -71 5 -33 23 28 14 67 15 67 2z m6447 4 c-3 -3 -12 -4 -19 -1 -8 3
-5 6 6 6 11 1 17 -2 13 -5z m-6089 -18 c-7 -8 -15 -12 -17 -11 -5 6 10 25 20
25 5 0 4 -6 -3 -14z m-508 -77 c0 -18 -2 -19 -15 -9 -8 7 -15 16 -15 21 0 5 7
9 15 9 9 0 15 -9 15 -21z"/>
<path d="M10287 5713 c-17 -4 -17 -6 -1 -17 13 -10 14 -17 5 -33 -8 -17 -7
-22 5 -27 34 -13 114 -2 114 15 0 5 -15 9 -32 9 -30 1 -31 2 -15 14 16 13 16
14 -8 20 -14 4 -25 11 -25 16 0 10 -12 11 -43 3z"/>
<path d="M9786 5671 c-3 -5 6 -11 19 -14 29 -5 43 8 19 17 -22 8 -32 8 -38 -3z"/>
<path d="M10340 5580 c0 -21 8 -24 34 -14 13 5 14 9 5 20 -17 21 -39 17 -39
-6z"/>
<path d="M10447 5573 c-4 -3 -7 -11 -7 -17 0 -6 5 -5 12 2 6 6 9 14 7 17 -3 3
-9 2 -12 -2z"/>
<path d="M1310 5330 c0 -5 9 -10 20 -10 11 0 20 5 20 10 0 6 -9 10 -20 10 -11
0 -20 -4 -20 -10z"/>
<path d="M11585 5300 c-4 -6 6 -10 24 -10 16 0 33 5 36 10 4 6 -6 10 -24 10
-16 0 -33 -4 -36 -10z"/>
<path d="M11550 5271 c0 -11 9 -27 21 -35 27 -18 18 -35 -16 -28 -18 3 -25 0
-25 -11 0 -21 76 -32 104 -14 16 11 27 11 45 4 29 -14 47 7 46 50 -2 34 -34
46 -42 15 -6 -25 -26 -34 -52 -24 -19 7 -21 10 -21 31 0 5 -8 11 -17 15 -10 3
-24 9 -30 12 -8 3 -13 -2 -13 -15z"/>
<path d="M1448 5144 c-4 -3 -4 -13 -1 -21 7 -18 -13 -33 -44 -33 -13 0 -23 -5
-23 -11 0 -7 9 -9 23 -5 12 3 27 6 34 6 18 0 35 38 25 55 -4 9 -11 13 -14 9z"/>
<path d="M11570 4770 c0 -5 7 -10 16 -10 8 0 12 5 9 10 -3 6 -10 10 -16 10 -5
0 -9 -4 -9 -10z"/>
<path d="M11285 4732 c-10 -10 -5 -22 10 -22 8 0 15 -5 15 -10 0 -6 -7 -13
-15 -16 -17 -7 -21 -44 -5 -44 6 0 10 9 10 21 0 14 10 24 30 32 17 6 29 16 27
21 -4 12 -63 26 -72 18z"/>
<path d="M11370 4710 c0 -5 5 -10 10 -10 6 0 10 5 10 10 0 6 -4 10 -10 10 -5
0 -10 -4 -10 -10z"/>
<path d="M11537 4693 c-14 -13 -6 -33 12 -33 36 0 53 11 40 26 -12 15 -41 19
-52 7z"/>
<path d="M11235 4550 c-7 -12 2 -30 16 -30 12 0 12 27 0 35 -5 3 -12 1 -16 -5z"/>
<path d="M11038 4513 c7 -3 16 -2 19 1 4 3 -2 6 -13 5 -11 0 -14 -3 -6 -6z"/>
<path d="M11140 4375 c0 -8 9 -15 20 -15 24 0 27 15 4 24 -22 9 -24 8 -24 -9z"/>
<path d="M9625 4360 c-4 -6 10 -10 35 -10 25 0 39 4 35 10 -3 6 -19 10 -35 10
-16 0 -32 -4 -35 -10z"/>
<path d="M10322 4325 c-19 -22 -15 -29 19 -31 17 -1 35 -7 39 -14 4 -7 13 -9
20 -5 9 6 9 10 -1 16 -12 8 -11 11 1 19 13 9 13 11 0 20 -22 14 -63 11 -78 -5z"/>
<path d="M1411 4314 c-11 -13 -10 -18 7 -35 36 -33 58 -17 38 28 -13 26 -25
29 -45 7z"/>
<path d="M1325 4209 c-59 -18 -110 -28 -147 -27 -60 1 -76 13 -33 24 40 10 21
17 -24 9 -40 -7 -58 -25 -24 -25 15 0 15 -1 0 -18 -10 -10 -17 -22 -17 -25 0
-12 37 -8 85 9 67 22 91 12 35 -15 l-45 -21 70 4 c81 5 114 15 94 27 -21 12 6
35 56 48 28 7 45 17 45 26 0 8 -1 14 -2 14 -2 -1 -43 -14 -93 -30z"/>
<path d="M10920 4030 c0 -5 5 -10 10 -10 6 0 10 5 10 10 0 6 -4 10 -10 10 -5
0 -10 -4 -10 -10z"/>
<path d="M10980 4012 c8 -6 44 -15 80 -22 36 -6 86 -18 111 -26 55 -17 59 -17
59 -4 0 6 -5 10 -12 10 -6 0 -19 6 -27 14 -9 8 -36 17 -61 19 -142 17 -164 18
-150 9z"/>
<path d="M11403 3948 c-16 -27 -10 -38 29 -50 22 -6 42 -18 45 -25 6 -15 33
-18 33 -3 0 6 -5 10 -11 10 -6 0 -8 8 -4 19 10 32 -15 61 -52 61 -17 0 -35 -6
-40 -12z"/>
<path d="M11535 3880 c4 -6 11 -8 16 -5 14 9 11 15 -7 15 -8 0 -12 -5 -9 -10z"/>
<path d="M1855 3770 c3 -5 8 -10 11 -10 2 0 4 5 4 10 0 6 -5 10 -11 10 -5 0
-7 -4 -4 -10z"/>
<path d="M11396 3727 c4 -11 1 -23 -7 -28 -19 -11 -8 -19 36 -26 33 -5 37 -4
32 10 -8 22 8 30 23 12 9 -11 17 -12 30 -5 10 6 34 10 52 11 32 0 32 1 -12 14
-25 8 -71 18 -103 23 -55 9 -57 8 -51 -11z"/>
<path d="M1760 3699 c-6 -10 -10 -25 -10 -33 0 -12 7 -11 35 7 41 26 43 33 10
40 -18 3 -29 -1 -35 -14z"/>
<path d="M1853 3713 c-20 -7 -15 -23 7 -23 11 0 20 4 20 9 0 13 -12 19 -27 14z"/>
<path d="M11248 3703 c7 -3 16 -2 19 1 4 3 -2 6 -13 5 -11 0 -14 -3 -6 -6z"/>
<path d="M1835 3650 c-3 -5 1 -10 9 -10 8 0 18 5 21 10 3 6 -1 10 -9 10 -8 0
-18 -4 -21 -10z"/>
<path d="M1710 3620 c0 -5 7 -7 15 -4 8 4 15 8 15 10 0 2 -7 4 -15 4 -8 0 -15
-4 -15 -10z"/>
<path d="M11394 3546 c-15 -11 -12 -16 32 -40 51 -28 77 -30 82 -6 7 40 -76
73 -114 46z"/>
<path d="M11370 3333 c0 -4 9 -14 21 -21 18 -12 20 -11 17 5 -3 17 -38 32 -38
16z"/>
<path d="M11670 3254 c0 -13 35 -33 58 -34 27 0 29 16 3 30 -22 11 -61 14 -61
4z"/>
<path d="M11040 3110 c11 -20 30 -28 30 -12 0 11 -22 32 -32 32 -5 0 -4 -9 2
-20z"/>
<path d="M10598 2753 c7 -3 16 -2 19 1 4 3 -2 6 -13 5 -11 0 -14 -3 -6 -6z"/>
<path d="M1290 2740 c-12 -8 -12 -10 5 -10 11 0 27 5 35 10 12 8 12 10 -5 10
-11 0 -27 -5 -35 -10z"/>
<path d="M1374 2704 c-17 -14 -17 -15 -1 -10 10 3 23 6 28 6 5 0 9 5 9 10 0
14 -13 12 -36 -6z"/>
<path d="M9336 2621 c5 -5 25 -12 44 -15 l35 -6 -35 14 c-42 17 -58 20 -44 7z"/>
<path d="M10489 2525 c18 -8 45 -15 60 -15 25 1 25 1 -8 15 -18 8 -45 15 -60
15 -25 -1 -25 -1 8 -15z"/>
<path d="M9740 2522 c-55 -5 -69 -12 -42 -23 22 -9 31 -29 11 -29 -5 0 -7 -4
-4 -10 8 -13 45 -13 45 0 0 6 12 15 26 21 21 7 33 6 52 -7 19 -12 27 -14 30
-5 2 7 15 9 37 5 19 -3 35 -1 39 5 4 6 1 12 -6 12 -7 1 -26 3 -43 6 -16 2 -42
4 -57 4 -16 0 -28 4 -28 8 0 13 -20 17 -60 13z"/>
<path d="M10128 2513 c17 -2 32 -8 32 -14 0 -5 14 -9 30 -9 17 0 30 5 30 11 0
7 -10 9 -25 7 -13 -3 -22 -1 -19 3 3 5 -14 8 -38 7 -37 -1 -38 -2 -10 -5z"/>
<path d="M9730 2410 c19 -5 73 -12 120 -15 66 -4 79 -3 60 5 -14 6 -68 13
-120 15 -69 2 -86 1 -60 -5z"/>
<path d="M9750 2120 c0 -5 10 -10 23 -10 18 0 19 2 7 10 -19 13 -30 13 -30 0z"/>
<path d="M9865 2110 c-6 -9 62 -26 70 -18 3 3 -11 9 -30 15 -19 6 -37 7 -40 3z"/>
<path d="M9963 2093 c9 -2 25 -2 35 0 9 3 1 5 -18 5 -19 0 -27 -2 -17 -5z"/>
<path d="M1958 1953 c7 -3 16 -2 19 1 4 3 -2 6 -13 5 -11 0 -14 -3 -6 -6z"/>
<path d="M1898 1943 c6 -2 18 -2 25 0 6 3 1 5 -13 5 -14 0 -19 -2 -12 -5z"/>
<path d="M2641 1889 c-47 -9 -58 -15 -48 -26 7 -7 86 15 102 29 11 9 7 9 -54
-3z"/>
<path d="M3270 1889 c0 -5 5 -7 10 -4 6 3 10 8 10 11 0 2 -4 4 -10 4 -5 0 -10
-5 -10 -11z"/>
<path d="M9775 1880 c28 -12 75 -12 75 0 0 6 -21 10 -47 9 -36 0 -43 -3 -28
-9z"/>
<path d="M1883 1873 c-30 -6 -29 -21 1 -29 37 -9 70 -1 74 19 4 17 -20 21 -75
10z"/>
<path d="M9530 1871 c0 -10 26 -9 36 2 4 4 -2 7 -14 7 -12 0 -22 -4 -22 -9z"/>
<path d="M2240 1790 c0 -5 5 -10 11 -10 5 0 7 5 4 10 -3 6 -8 10 -11 10 -2 0
-4 -4 -4 -10z"/>
</g>
</svg>
