<?xml version="1.0" standalone="no"?>
<!DOCTYPE svg PUBLIC "-//W3C//DTD SVG 20010904//EN"
 "http://www.w3.org/TR/2001/REC-SVG-20010904/DTD/svg10.dtd">
<svg version="1.0" xmlns="http://www.w3.org/2000/svg"
 width="2048.000000pt" height="1365.000000pt" viewBox="0 0 2048.000000 1365.000000"
 preserveAspectRatio="xMidYMid meet">

<g transform="translate(0.000000,1365.000000) scale(0.100000,-0.100000)"
fill="#f5981f" stroke="none">
<path d="M12458 8965 c-4 -4 -508 -7 -1120 -7 -843 0 -1194 -4 -1448 -16 -309
-14 -372 -13 -815 3 -432 16 -652 17 -2195 11 -943 -3 -1771 -9 -1840 -11 -69
-3 -237 -10 -375 -16 -137 -5 -401 -14 -585 -19 -184 -5 -364 -12 -400 -15
-111 -10 -399 -45 -449 -55 -27 -5 -95 -14 -151 -20 -122 -12 -164 -32 -203
-96 -28 -46 -44 -56 -112 -70 -34 -8 -41 -13 -45 -39 -5 -29 -7 -30 -85 -42
-44 -6 -125 -15 -180 -19 -130 -9 -139 -14 -227 -122 -9 -11 -41 -27 -72 -36
-30 -9 -58 -21 -61 -26 -17 -27 91 -170 129 -170 8 0 39 -27 69 -60 31 -33 60
-60 66 -60 19 0 61 -23 61 -33 0 -6 -7 -19 -17 -29 -22 -24 -14 -29 54 -37
l58 -6 -2 -35 c-2 -28 6 -46 40 -90 24 -30 58 -63 77 -74 19 -10 55 -46 80
-78 25 -33 55 -64 68 -69 12 -5 25 -17 29 -26 3 -10 15 -30 25 -45 22 -33 26
-133 4 -141 -8 -3 -40 0 -72 8 -192 42 -242 54 -268 64 -16 6 -44 9 -63 5 -19
-4 -76 -1 -128 7 l-94 12 -38 -26 c-21 -14 -50 -29 -65 -32 -35 -9 -66 -85
-34 -85 8 0 23 -8 35 -17 19 -16 20 -22 9 -56 -11 -37 -11 -39 19 -63 17 -13
34 -36 38 -51 3 -16 13 -35 21 -44 10 -11 14 -33 12 -65 -3 -43 -6 -50 -28
-54 -28 -6 -141 -68 -152 -84 -16 -23 -8 -54 15 -60 24 -6 87 -94 87 -121 0
-26 -38 -35 -152 -35 -124 0 -179 -11 -209 -41 -11 -11 -31 -24 -44 -29 -14
-5 -25 -16 -25 -25 0 -8 -4 -15 -10 -15 -5 0 -10 -11 -10 -25 0 -20 5 -25 24
-25 26 0 40 -13 51 -50 4 -14 16 -31 27 -38 16 -12 18 -21 12 -58 -5 -36 -2
-53 21 -96 24 -46 26 -59 20 -111 -6 -57 -5 -61 24 -91 16 -17 31 -44 33 -60
2 -21 12 -35 35 -47 29 -16 42 -17 125 -8 50 6 104 8 118 5 14 -3 75 -1 135 5
175 15 597 39 605 34 5 -3 43 -10 86 -16 43 -6 86 -15 96 -20 24 -13 23 -36
-1 -44 -11 -3 -43 -33 -71 -66 -44 -49 -61 -62 -107 -75 -62 -18 -72 -33 -51
-78 25 -52 67 -95 133 -137 34 -21 67 -50 73 -64 7 -14 28 -33 47 -41 39 -16
40 -17 24 -42 -22 -36 39 -121 122 -170 19 -12 56 -44 82 -72 25 -27 54 -50
64 -50 10 0 29 -9 43 -20 24 -20 25 -21 6 -35 -27 -21 -11 -34 52 -44 64 -10
80 -22 74 -60 -2 -16 1 -32 7 -35 6 -4 71 1 143 11 116 15 217 18 796 18 l664
0 24 -28 c13 -15 24 -34 24 -40 0 -7 20 -18 45 -25 33 -9 49 -19 57 -38 10
-20 9 -27 -2 -34 -17 -11 -10 -14 65 -33 48 -12 50 -14 47 -44 -3 -35 -2 -36
93 -52 127 -22 368 -31 830 -31 421 0 1258 18 1625 35 69 3 271 10 450 15 450
13 994 38 1545 70 94 5 328 14 521 20 194 5 455 16 580 24 126 8 281 17 344
20 63 3 252 15 420 26 685 43 957 58 1260 65 363 10 1029 35 1545 60 165 8
440 19 610 25 897 30 1450 51 1532 60 87 10 163 34 163 52 0 16 77 58 127 68
49 11 53 14 69 56 9 24 20 44 24 44 4 0 15 15 25 34 18 32 18 36 2 60 -19 28
-60 49 -118 60 -42 7 -81 46 -104 100 -14 32 -14 40 -3 47 7 5 20 6 28 3 35
-14 529 -15 688 -1 147 13 165 16 188 38 25 23 26 28 21 109 -4 65 -11 97 -31
135 -15 29 -26 67 -26 91 0 26 -8 51 -20 67 -24 30 -24 35 -4 58 19 22 7 49
-42 95 -31 29 -32 33 -22 61 23 61 -15 90 -164 124 -92 22 -103 27 -130 62
-34 43 -31 67 9 67 91 1 328 22 452 40 142 21 178 32 236 75 68 51 115 67 217
72 70 4 102 10 110 21 8 9 13 43 13 81 0 50 -5 75 -22 104 -24 39 -31 87 -13
87 5 0 58 7 117 16 112 17 175 41 193 73 23 43 5 148 -31 183 -9 9 -20 35 -24
57 -4 23 -10 41 -14 41 -3 0 -5 17 -3 38 3 28 -1 42 -17 56 -26 24 -26 34 0
62 18 19 19 25 8 43 -8 11 -26 26 -41 32 -41 17 -49 37 -31 75 9 18 13 39 10
47 -7 19 -56 26 -138 20 -48 -4 -73 -1 -96 10 -26 14 -46 15 -139 6 -320 -29
-550 -21 -904 32 -74 11 -152 22 -173 25 -32 5 -38 9 -35 27 3 19 12 23 70 31
66 9 67 10 83 49 9 22 25 51 36 65 24 32 25 88 1 101 -9 5 -35 12 -57 16 -66
11 -94 26 -116 62 -12 19 -47 53 -78 76 -69 52 -81 66 -75 92 5 21 -14 36 -62
50 -12 3 -34 17 -50 30 -38 33 -82 40 -145 25 -36 -9 -88 -11 -168 -6 -165 10
-185 15 -191 51 -5 31 -23 40 -115 60 -17 4 -51 29 -80 59 -28 29 -72 67 -98
85 -47 32 -51 38 -48 77 2 15 -7 24 -31 33 -34 13 -42 17 -92 51 -34 22 -150
43 -366 65 -278 29 -433 33 -1295 34 -467 0 -1068 4 -1335 7 -267 4 -488 3
-492 -1z"/>
</g>
</svg>
