<?xml version="1.0" standalone="no"?>
<!DOCTYPE svg PUBLIC "-//W3C//DTD SVG 20010904//EN"
 "http://www.w3.org/TR/2001/REC-SVG-20010904/DTD/svg10.dtd">
<svg version="1.0" xmlns="http://www.w3.org/2000/svg"
 width="2000.000000pt" height="1125.000000pt" viewBox="0 0 2000.000000 1125.000000"
 preserveAspectRatio="xMidYMid meet">

<g transform="translate(0.000000,1125.000000) scale(0.100000,-0.100000)"
fill="#f29821" stroke="none">
<path d="M7350 7038 c-122 -18 -156 -19 -355 -10 -211 9 -263 7 -620 -18 -281
-21 -637 -67 -1030 -135 -337 -58 -718 -134 -780 -155 -87 -30 -284 -114 -285
-121 0 -4 27 -9 60 -11 100 -7 109 -47 12 -54 -46 -3 -147 -36 -166 -54 -4 -4
-2 -24 5 -44 11 -30 18 -35 48 -38 l36 -3 -33 -20 c-102 -60 -123 -77 -139
-109 -15 -32 -15 -37 1 -60 20 -31 35 -32 69 -6 14 11 34 20 46 20 19 0 20 -2
6 -41 -8 -23 -12 -46 -9 -51 13 -20 90 -48 136 -48 26 0 49 -4 52 -8 8 -14
-100 -95 -144 -108 -23 -7 -56 -25 -72 -41 l-29 -28 98 -5 c85 -4 95 -7 76
-18 -12 -6 -62 -16 -112 -21 -49 -5 -118 -17 -152 -27 l-61 -17 23 -18 c68
-52 322 -59 426 -13 39 18 132 18 156 0 10 -8 15 -16 10 -19 -4 -2 -71 -19
-148 -37 -77 -18 -146 -37 -152 -43 -20 -15 -15 -26 15 -33 42 -10 45 -15 22
-31 l-22 -16 28 -23 c24 -19 27 -26 18 -41 -8 -14 -28 -19 -82 -23 -39 -3 -73
-8 -77 -11 -14 -15 151 -43 379 -65 57 -6 58 -6 35 -22 -31 -22 -147 -28 -235
-13 -42 8 -70 9 -76 3 -6 -6 -6 -12 -1 -15 4 -3 98 -21 208 -41 110 -20 220
-45 245 -55 81 -34 143 -35 555 -5 217 15 398 24 402 21 15 -15 -14 -21 -130
-28 -219 -13 -345 -42 -361 -84 -4 -12 113 -25 230 -25 61 0 73 -11 44 -40
-18 -18 -32 -20 -187 -20 -93 0 -256 -7 -363 -15 -674 -51 -619 -45 -690 -78
-55 -27 -82 -32 -185 -39 -239 -17 -260 -21 -260 -43 0 -38 75 -64 210 -70
151 -8 468 -42 519 -56 21 -6 35 -14 30 -18 -10 -9 -326 -31 -436 -31 -124 0
-70 -18 75 -24 78 -4 154 -9 170 -12 56 -11 18 -33 -58 -34 -47 0 -86 -19 -45
-21 14 -1 32 -2 40 -1 25 2 90 -18 90 -28 0 -4 -34 -11 -75 -15 -41 -4 -75
-11 -75 -16 0 -5 6 -9 13 -9 6 0 55 -5 107 -10 52 -6 203 -22 336 -35 132 -14
258 -31 280 -39 21 -8 32 -15 24 -16 -8 0 -46 -5 -85 -10 -48 -5 -131 -3 -261
8 -182 14 -232 13 -220 -7 9 -14 131 -29 611 -76 253 -24 539 -53 635 -64 385
-45 907 -70 1505 -73 394 -3 518 3 498 22 -4 5 -114 12 -243 16 -129 4 -246
10 -260 14 -34 9 -40 47 -8 54 13 3 437 7 943 10 1411 9 2554 18 2825 23 135
2 612 5 1060 7 944 4 1579 26 2020 71 80 8 249 19 376 25 127 5 264 14 305 20
41 5 110 10 154 10 44 1 89 5 100 9 38 16 -66 23 -151 12 -50 -7 -90 -8 -105
-3 -21 8 -14 12 56 35 45 14 110 30 145 36 128 22 180 34 180 42 0 5 -17 9
-39 9 -44 0 -70 20 -48 38 15 13 109 27 244 37 60 5 96 12 104 21 10 12 3 14
-42 14 -75 0 -130 11 -126 24 7 24 79 46 222 66 177 25 212 38 217 77 l3 28
170 12 c209 14 206 13 175 23 -14 4 -132 8 -262 9 -141 1 -239 5 -243 11 -8
13 13 16 225 35 242 20 272 24 265 36 -4 5 -135 9 -318 9 -236 0 -335 4 -407
16 -74 12 -140 14 -295 10 -110 -3 -231 -2 -270 2 -61 6 -70 10 -70 27 0 25
57 43 140 44 94 2 195 13 195 22 0 5 -57 9 -127 9 -71 0 -134 4 -141 8 -10 7
-10 14 3 38 l15 29 -110 5 c-111 5 -147 17 -122 42 6 6 151 28 324 48 226 27
323 42 348 55 19 10 29 20 22 22 -6 3 -74 0 -150 -6 -205 -16 -252 -15 -252 7
1 45 34 58 166 67 55 4 185 18 289 32 125 16 233 24 317 24 177 -2 378 20 378
40 0 7 -71 9 -192 8 -172 -3 -203 -1 -288 20 -130 31 -133 32 -124 41 31 27
74 34 394 58 63 5 131 16 150 24 21 9 83 18 154 22 126 7 156 18 156 58 0 15
-8 18 -62 18 -48 0 -59 -3 -50 -12 20 -20 14 -25 -39 -38 -70 -17 -398 -4
-453 18 -34 13 -37 17 -22 27 9 7 16 15 16 18 0 3 -43 7 -95 9 -52 1 -99 8
-104 13 -7 7 -3 20 12 39 19 23 35 30 80 37 32 4 70 17 89 30 29 21 49 24 192
32 149 7 176 11 165 21 -2 2 -101 8 -219 14 l-215 10 -78 41 c-66 35 -87 41
-140 42 -93 1 -163 13 -181 32 -13 12 -36 17 -84 18 -125 2 -143 6 -179 40
l-33 33 -142 8 c-79 4 -247 11 -375 15 -127 5 -235 11 -239 16 -15 14 8 21 79
24 40 2 144 8 232 13 88 6 234 13 325 14 112 3 181 9 215 19 28 9 124 21 215
27 176 12 204 16 195 31 -4 5 -48 9 -100 9 -118 0 -140 20 -35 32 17 2 25 9
25 23 0 18 -7 20 -85 22 -455 11 -908 26 -1032 33 -84 5 -301 14 -483 20 -181
5 -384 14 -450 20 -66 5 -275 12 -465 15 -439 7 -643 15 -660 25 -11 7 -11 14
-2 34 14 31 52 34 127 11 44 -13 53 -12 104 5 45 15 73 17 139 13 71 -5 89 -3
125 15 30 14 72 23 145 28 97 6 125 14 102 29 -5 3 -10 16 -10 29 0 42 -15 46
-182 46 -153 0 -1097 20 -1863 40 -203 5 -402 14 -441 20 -49 7 -281 9 -725 4
-360 -3 -692 -6 -739 -5 -47 0 -232 -5 -412 -11 -259 -9 -360 -8 -483 2 -85 7
-155 16 -155 20 0 3 17 15 38 26 l37 19 -130 6 c-71 3 -141 9 -155 12 -14 3
-86 -4 -160 -15z m-630 -1097 c5 -11 10 -24 10 -30 0 -8 -76 -11 -237 -11
-222 0 -313 9 -313 29 0 15 39 19 133 15 51 -3 135 -1 187 4 166 16 208 15
220 -7z m313 -47 c88 -21 106 -29 92 -37 -46 -26 -242 -15 -260 14 -10 16 15
49 37 49 12 0 71 -12 131 -26z m-2868 -954 c-3 -5 -44 -10 -91 -10 -54 0 -83
4 -79 10 3 6 44 10 91 10 54 0 83 -4 79 -10z"/>
<path d="M13300 6923 c0 -11 32 -14 395 -38 468 -31 509 -36 469 -58 -20 -12
-164 -12 -459 -2 -232 8 -553 24 -602 31 -37 5 -46 2 -68 -22 -25 -27 -41 -30
-274 -54 -3 0 -1 -4 5 -9 9 -9 232 -15 444 -12 58 1 164 8 235 16 72 8 204 15
295 15 165 0 448 -15 457 -24 3 -2 0 -14 -6 -25 l-11 -20 347 4 c192 2 560 7
818 10 259 3 488 10 509 15 44 10 67 27 45 34 -8 2 -189 16 -403 31 -213 15
-394 29 -402 32 -28 11 -12 21 56 38 39 9 70 21 70 25 0 17 -166 22 -435 14
-331 -11 -530 -10 -1077 1 -273 5 -408 5 -408 -2z"/>
<path d="M15543 6193 c-25 -9 -12 -23 21 -23 42 0 68 9 60 21 -5 9 -60 11 -81
2z"/>
<path d="M15990 6110 c0 -5 7 -10 15 -10 8 0 15 5 15 10 0 6 -7 10 -15 10 -8
0 -15 -4 -15 -10z"/>
<path d="M15668 6013 c7 -3 16 -2 19 1 4 3 -2 6 -13 5 -11 0 -14 -3 -6 -6z"/>
<path d="M15963 5923 c-34 -7 -28 -20 7 -15 17 2 30 8 30 13 0 5 -3 8 -7 8 -5
-1 -18 -4 -30 -6z"/>
<path d="M16050 5120 c0 -5 7 -10 15 -10 8 0 15 5 15 10 0 6 -7 10 -15 10 -8
0 -15 -4 -15 -10z"/>
<path d="M15134 4425 c-23 -7 -79 -16 -125 -19 -171 -13 -627 -46 -704 -52
-44 -3 -144 -14 -223 -25 -79 -10 -219 -26 -311 -34 -92 -9 -180 -19 -197 -24
-29 -8 -28 -8 15 -16 46 -8 195 -1 346 17 50 5 151 10 226 9 95 -1 171 5 250
19 63 11 184 27 269 35 285 29 499 69 515 96 8 12 -10 10 -61 -6z"/>
<path d="M7965 4365 c-11 -2 -46 -7 -77 -10 -32 -4 -58 -9 -58 -13 0 -4 225
-7 500 -7 275 0 500 3 500 6 0 4 -21 9 -47 12 -55 8 -788 18 -818 12z"/>
<path d="M8905 4351 c-17 -7 -14 -10 20 -17 80 -18 284 -6 271 15 -7 11 -266
12 -291 2z"/>
<path d="M9855 4341 l-30 -7 33 -7 c36 -7 92 1 92 14 0 10 -50 10 -95 0z"/>
<path d="M11160 4285 c-140 -7 -373 -14 -517 -14 -242 -1 -328 -9 -309 -29 4
-4 260 -7 569 -8 309 0 762 -6 1007 -12 374 -10 455 -10 510 2 60 13 66 12 90
-6 27 -19 27 -19 157 11 72 17 138 31 147 31 9 0 16 4 16 9 0 22 -1309 35
-1670 16z"/>
<path d="M13046 4241 c-100 -18 -151 -31 -154 -40 -4 -12 7 -13 58 -8 35 4
123 7 196 7 74 0 134 3 134 8 0 16 -52 62 -68 61 -9 -1 -84 -14 -166 -28z"/>
<path d="M13628 4203 c12 -2 32 -2 45 0 12 2 2 4 -23 4 -25 0 -35 -2 -22 -4z"/>
</g>
</svg>
